<?xml version="1.0" encoding="UTF-8"?>
<svg id="Layer_19" data-name="Layer 19" xmlns="http://www.w3.org/2000/svg" viewBox="0 0 584.45 584.45">
  <defs>
    <style>
      .cls-1 {
        fill: #3f3632;
      }

      .cls-2 {
        fill: #01430e;
      }

      .cls-3 {
        fill: #82ec86;
      }
    </style>
  </defs>
  <path class="cls-3" d="M265.35,409.22c51.6,2.93,103.17,11.46,154.04,20.4,22.53,3.96,45.06,7.96,67.6,11.87,3.72.65,7.74,1.25,10.34,1.63,6.6.72,13.21,1.36,19.83,1.94,32.34-43.95,51.47-98.21,51.47-156.96,0-146.45-118.72-265.18-265.18-265.18S38.27,141.64,38.27,288.09c0,46.48,11.99,90.14,33,128.13,64.76-4.3,129.67-10.67,194.08-7.01Z"/>
  <path class="cls-2" d="M376.23,142.48c-15.76-5.78-32.58-8.86-49.37-9.2-16.44-.33-34.72,1.39-49.92,8.04s-21.32,22.36-24.98,37.87c-1.99,8.46-3.22,17.3-1.09,25.87s7.72,15.24,14.42,20.52c11.94,9.42,25.72,15.23,39.3,21.82,11.95,5.8,23.98,12.52,31.31,23.51,7.16,10.73,9.93,23.08,6.78,34.7-3.03,11.18-11.17,19.99-21.67,23.34-7.06,2.25-12.43,2.59-20.12,1.9-2.15-.19-5.95-.97-9.15-1.87s-6.42-2.06-9.47-3.53c-15.03-7.25-27.19-18.53-38.65-30.44-11.42-11.85-29.45,6.21-18.05,18.05,21.43,22.24,47.51,42.88,79.81,43.57,15.26.32,30.3-4.16,42.29-13.67,12.57-9.98,19.5-25,21.42-40.68,1.87-15.31-2.65-31.47-11.16-44.23-8.87-13.3-21.35-22.88-35.44-30.15-13.06-6.74-27.13-11.86-39.16-20.44-4.72-3.36-8.15-6.73-8.12-12.29.03-6.62,2.23-13.63,4.27-19.97s4.56-9.86,11.06-11.83c8.25-2.5,16.88-3.85,25.47-4.34,18.34-1.04,36.2,1.76,53.43,8.08,6.47,2.37,13.98-2.66,15.7-8.91,1.96-7.12-2.42-13.31-8.91-15.7h0Z"/>
  <path class="cls-2" d="M323.23,98c-14.07,71.56-28.13,143.12-42.2,214.68-3.96,20.17-7.93,40.33-11.89,60.5-1.33,6.76,1.92,13.77,8.91,15.7,6.27,1.72,14.36-2.12,15.7-8.91,14.07-71.56,28.13-143.12,42.2-214.68,3.96-20.17,7.93-40.33,11.89-60.5,1.33-6.76-1.92-13.77-8.91-15.7-6.27-1.72-14.36,2.12-15.7,8.91h0Z"/>
  <path class="cls-1" d="M50.04,438.91c125.66-9.91,252.55-14.06,377.92,1.67,35,4.39,69.79,10.56,104.17,18.41,6.71,1.53,13.81-2.06,15.7-8.91,1.77-6.43-2.16-14.15-8.91-15.7-124.89-28.53-253.77-33.25-381.35-27.73-35.88,1.55-71.73,3.91-107.53,6.73-6.87.54-12.76,5.48-12.76,12.76,0,6.48,5.85,13.3,12.76,12.76h0Z"/>
</svg>