<?xml version="1.0" encoding="UTF-8"?>
<svg id="Layer_1" data-name="Layer 1" xmlns="http://www.w3.org/2000/svg" viewBox="0 0 1123.48 922.74">
  <defs>
    <style>
      .cls-1 {
        fill: #3f3632;
      }

      .cls-2 {
        fill: #01430e;
      }

      .cls-3 {
        fill: #82ec86;
      }
    </style>
  </defs>
  <g id="coin">
    <path class="cls-3" d="M482.25,816.78c109.11,6.2,218.14,24.24,325.7,43.13,47.64,8.37,95.26,16.82,142.92,25.1,7.88,1.37,16.37,2.63,21.86,3.44,13.96,1.51,27.93,2.88,41.92,4.1,68.37-92.93,108.83-207.66,108.83-331.87C1123.48,251.03,872.46,0,562.8,0S2.12,251.03,2.12,560.68c0,98.27,25.36,190.6,69.77,270.91,136.92-9.1,274.17-22.56,410.36-14.82Z"/>
    <path class="cls-2" d="M716.68,252.81c-33.9-12.57-70.37-19.03-106.51-19.48-19.07-.24-38.03,1.55-56.85,4.52s-36.42,6.78-52.67,15.3c-32.21,16.91-43.89,56.4-49.3,89.92-3.43,21.29-3.29,43.75,9.11,62.44,10.59,15.95,26.19,27.66,42.3,37.62,26.05,16.12,55.03,26.63,81.77,41.46,6.51,3.61,12.89,7.48,19,11.73,1.53,1.06,3.03,2.16,4.53,3.25,1.39,1.01,3.37,3.21-1.66-1.3.59.53,1.25,1,1.87,1.5,3.08,2.52,6.07,5.16,8.93,7.93,2.66,2.58,5.22,5.27,7.66,8.06,1.05,1.2,2.06,2.43,3.08,3.64,1.09,1.29,2.61,3.97-1.27-1.71.6.87,1.27,1.7,1.89,2.56,4.49,6.22,8.45,12.82,11.79,19.73.8,1.66,1.49,3.39,2.31,5.04.1.2-2.17-5.56-1.22-2.79.26.75.57,1.48.85,2.21,1.37,3.7,2.57,7.48,3.57,11.3.94,3.58,1.55,7.2,2.29,10.82.61,2.99-.47-3.58-.4-3.25.2,1.01.25,2.14.35,3.15.19,2.04.33,4.08.41,6.13.12,3.33.09,6.67-.1,9.99-.1,1.8-.27,3.58-.44,5.37-.17,1.89-1.14,4.62.38-2.59-.21,1-.32,2.03-.5,3.04-1.27,7.09-3.32,13.94-5.87,20.67-1.61,4.24,2.55-5.56-.03-.12-.77,1.61-1.57,3.21-2.42,4.78-1.81,3.36-3.83,6.62-6.02,9.75-3.42,4.88,2.97-3.4.08.03-.98,1.17-1.96,2.35-2.98,3.48-2.56,2.84-5.29,5.53-8.18,8.02-.75.65-1.54,1.26-2.29,1.91-2.13,1.85,2.74-2.04,2.52-1.94-1.49.69-2.86,2.05-4.25,2.97-3.08,2.03-6.27,3.88-9.56,5.54-1.53.78-3.11,1.46-4.66,2.2-2.59,1.24,3.26-1.55,3.05-1.29-.28.35-1.64.64-2.06.8-3.46,1.3-6.98,2.42-10.56,3.37-3.35.89-6.75,1.62-10.17,2.2-.74.13-1.48.23-2.21.35-3.43.59,6.19-.7,2.73-.37-1.99.19-3.98.41-5.98.55-7.03.48-14.1.39-21.12-.22-1.74-.15-3.57-.19-5.28-.56-.4-.09,6.41.98,3.42.44-.99-.18-2-.31-2.99-.48-3.73-.64-7.44-1.43-11.11-2.36-3.17-.8-6.31-1.71-9.42-2.73-3.37-1.1-7.73-3.79-11.19-4.15-.09,0,5.26,2.33,2.61,1.09-1-.47-2.03-.9-3.04-1.37-1.76-.81-3.51-1.65-5.25-2.52-3.47-1.73-6.88-3.57-10.25-5.51-6.98-4.01-13.73-8.43-20.25-13.15-1.58-1.14-3.14-2.31-4.71-3.48-3.96-2.95,4.01,3.22.16.12-3.27-2.63-6.52-5.28-9.71-8.02-6.18-5.3-12.17-10.81-18.02-16.46s-11.14-11.03-16.57-16.69c-9.8-10.2-28.43-10.59-38.15,0-10.05,10.95-10.45,27.28,0,38.15,46.13,48,103.35,92.94,173.33,92.14,34.11-.39,68.33-11.94,93.04-36.02,24.81-24.17,38.28-59.46,38.01-93.9-.29-36.23-15.54-70.35-38.99-97.46-21.2-24.5-50.15-40.32-79.04-53.96-14.09-6.66-28.32-13.05-42.02-20.5-6.57-3.57-13.01-7.38-19.21-11.56-1.55-1.04-3.08-2.11-4.6-3.2-.85-.61-1.7-1.37-2.58-1.9-.13-.07,4.49,3.61,2.22,1.72-3.21-2.66-6.38-5.3-9.26-8.33-.73-.77-5.01-5.81-2.17-2.29s-1.06-1.86-1.55-2.73c-.4-.71-.72-1.5-1.15-2.19-1.44-2.3,1.02,2.41,1.03,2.56-.06-1.84-1.39-4.61-1.89-6.46-1.18-4.35.17,1.51.15,2.2.02-.81-.17-1.7-.23-2.52-.14-1.98-.18-3.96-.14-5.94s.17-4.01.36-6c.1-1.07.55-4.99.03-.72s.03.16.19-.73c1.41-8.05,3.46-15.99,5.58-23.87.95-3.52,1.94-7.04,3.07-10.51.48-1.48.99-2.96,1.52-4.43.25-.69,1.01-2.09,1.11-2.9-.1.88-2.51,5.53-.91,2.18s3.15-6.36,5.11-9.35c.53-.81,1.28-1.64,1.72-2.48.06-.11-3.83,4.45-1.87,2.51,1.43-1.42,2.71-2.98,4.22-4.35.55-.5,1.24-.96,1.74-1.5-3.69,4.03-3.24,2.34-1.4,1.26,1.69-.99,3.32-2.02,5.07-2.9.67-.34,1.67-.63,2.26-1.09-.44.35-6.12,2.31-1.79.79,2.13-.75,4.25-1.5,6.41-2.15,7.89-2.38,16.01-4.14,24.11-5.65,4.14-.77,8.42-1.15,12.52-2.05-.6.13-6.58.8-1.78.25.9-.1,1.8-.22,2.7-.32,2.4-.27,4.81-.51,7.22-.73,17.16-1.52,34.45-1.53,51.62-.05,1.01.09,12.52.76,12.62,1.36.01.07-5.71-.84-2.68-.35,1.19.19,2.39.35,3.59.54,2.39.38,4.77.78,7.15,1.22,8.62,1.57,17.17,3.53,25.62,5.87s16.2,4.9,24.14,7.84c13.26,4.92,30.14-5.48,33.19-18.84,3.48-15.29-4.65-27.92-18.84-33.19h0Z"/>
    <path class="cls-2" d="M604.61,158.75c-14.89,75.75-29.78,151.5-44.67,227.25-14.83,75.42-29.65,150.85-44.48,226.27-8.41,42.77-16.82,85.55-25.22,128.32-2.71,13.81,3.91,29.79,18.84,33.19,13.37,3.05,30.28-4.04,33.19-18.84,14.89-75.75,29.78-151.5,44.67-227.25,14.83-75.42,29.65-150.85,44.48-226.27,8.41-42.77,16.82-85.55,25.22-128.32,2.71-13.81-3.91-29.79-18.84-33.19-13.37-3.05-30.28,4.04-33.19,18.84h0Z"/>
    <path class="cls-1" d="M27,879.56c66.94-5.29,133.94-9.78,201-13.03,67.11-3.24,134.29-5.24,201.48-5.51,66.74-.27,133.49,1.14,200.13,4.72,66.8,3.59,133.49,9.36,199.85,17.78,4.12.52,8.25,1.06,12.37,1.6.95.13,1.9.25,2.85.38,3.11.41-2.41-.33-2.42-.33,2.21.32,4.44.6,6.65.91,8.24,1.14,16.47,2.31,24.7,3.53,16.77,2.49,33.52,5.15,50.23,8,32.83,5.59,65.53,11.9,98.07,18.96,8.15,1.77,16.28,3.59,24.41,5.45,13.73,3.14,29.85-4.21,33.19-18.84,3.13-13.74-4.13-29.82-18.84-33.19-65.54-15-131.75-26.92-198.36-36.07-68.03-9.35-136.35-16.19-204.88-20.51-67.22-4.23-134.58-6.19-201.94-6.37-67.18-.17-134.36,1.43-201.48,4.34-67.42,2.92-134.78,7.17-202.07,12.28-8.32.63-16.63,1.28-24.95,1.93-14.03,1.11-27.67,11.61-26.98,26.98.61,13.67,11.91,28.17,26.98,26.98h0Z"/>
  </g>
</svg>