<?xml version="1.0" encoding="UTF-8"?>
<svg id="Layer_19" data-name="Layer 19" xmlns="http://www.w3.org/2000/svg" viewBox="0 0 584.45 584.45">
  <defs>
    <style>
      .cls-1 {
        fill: #3f3632;
      }

      .cls-2 {
        fill: #01430e;
      }

      .cls-3 {
        fill: #82ec86;
      }
    </style>
  </defs>
  <path class="cls-3" d="M282.89,293.3c27.85,1.58,55.69,6.19,83.14,11.01,12.16,2.14,24.32,4.29,36.48,6.41,2.01.35,4.18.67,5.58.88,3.56.39,7.13.73,10.7,1.05,17.45-23.72,27.78-53.01,27.78-84.72,0-79.05-64.08-143.13-143.13-143.13s-143.13,64.08-143.13,143.13c0,25.09,6.47,48.65,17.81,69.16,34.95-2.32,69.99-5.76,104.76-3.78Z"/>
  <path class="cls-2" d="M342.73,149.34c-15.8-5.69-35.2-7.34-51.27-1.56-7.46,2.68-11.77,8.06-14.2,15.47s-4.51,16.34-.76,23.62c7.24,14.06,26.63,16.34,38.26,25.29,11.18,8.6,15.99,28.59,1.21,36.51-16.63,8.92-33.94-5.76-44.81-17-6.17-6.38-15.91,3.36-9.74,9.74,11.3,11.68,24.65,22.32,41.5,23.45,16.28,1.08,31.75-8.79,35.31-25.15,3.56-16.33-4.95-31.87-18.46-40.78-6.66-4.39-14.21-7.11-21.21-10.89-3.09-1.67-7.39-3.7-9.39-6.73-2.19-3.32-.38-8.14.57-11.63.89-3.29,1.77-6.84,5.05-8.47,3.88-1.94,9.2-2.43,13.46-2.79,10.58-.89,20.86.62,30.83,4.22,8.35,3.01,11.95-10.29,3.66-13.28h0Z"/>
  <path class="cls-2" d="M314.12,125.33c-9.73,49.51-19.47,99.02-29.2,148.53-1.7,8.66,11.57,12.37,13.28,3.66,9.73-49.51,19.47-99.02,29.2-148.53,1.7-8.66-11.57-12.37-13.28-3.66h0Z"/>
  <path class="cls-1" d="M166.67,309.33c67.66-5.32,135.98-7.58,203.5.84,19.06,2.38,37.99,5.74,56.71,10,8.63,1.96,12.32-11.31,3.66-13.28-67.25-15.3-136.57-17.94-205.27-14.99-19.56.84-39.09,2.12-58.61,3.66-8.78.69-8.85,14.47,0,13.77h0Z"/>
</svg>