<?xml version="1.0" encoding="UTF-8"?>
<svg id="Layer_19" data-name="Layer 19" xmlns="http://www.w3.org/2000/svg" viewBox="0 0 584.45 584.45">
  <defs>
    <style>
      .cls-1 {
        fill: #3f3632;
      }

      .cls-2 {
        fill: #01430e;
      }

      .cls-3 {
        fill: #82ec86;
      }
    </style>
  </defs>
  <path class="cls-3" d="M312.94,280.53c6.07.34,12.13,1.35,18.11,2.4,2.65.47,5.3.94,7.95,1.4.44.08.91.15,1.22.19.78.08,1.55.16,2.33.23,3.8-5.17,6.05-11.55,6.05-18.45,0-17.22-13.96-31.17-31.17-31.17s-31.17,13.96-31.17,31.17c0,5.46,1.41,10.6,3.88,15.06,7.61-.51,15.24-1.25,22.82-.82Z"/>
  <path class="cls-2" d="M325.97,249.18c-3.43-1.24-7.65-1.6-11.14-.35-1.73.61-2.68,1.9-3.19,3.61-.49,1.62-.9,3.51,0,5.06,1.78,3.11,6.1,3.41,8.61,5.66,2.24,2.01,2.92,6.17-.24,7.72-3.61,1.78-7.28-1.36-9.62-3.78-1.34-1.39-3.46.73-2.12,2.12,2.43,2.51,5.27,4.78,8.87,5.09s6.69-1.62,7.73-4.98-.67-7.05-3.5-9.1c-1.42-1.03-3.07-1.65-4.63-2.44-.73-.37-1.49-.77-2.1-1.32-.75-.69-.56-1.51-.34-2.41.2-.81.37-1.85,1.16-2.28.9-.49,2.18-.59,3.18-.66,2.24-.16,4.41.18,6.52.93,1.82.66,2.6-2.24.8-2.89h0Z"/>
  <path class="cls-2" d="M319.74,243.95c-2.12,10.78-4.24,21.57-6.36,32.35-.37,1.89,2.52,2.69,2.89.8,2.12-10.78,4.24-21.57,6.36-32.35.37-1.89-2.52-2.69-2.89-.8h0Z"/>
  <path class="cls-1" d="M287.62,284.02c18.89-1.48,38.09-1.86,56.67,2.36,1.88.43,2.68-2.46.8-2.89-18.85-4.28-38.31-3.97-57.47-2.47-1.91.15-1.93,3.15,0,3h0Z"/>
</svg>