<?xml version="1.0" encoding="UTF-8"?>
<svg id="Layer_16" data-name="Layer 16" xmlns="http://www.w3.org/2000/svg" viewBox="0 0 584.45 584.45">
  <defs>
    <style>
      .cls-1 {
        fill: #3f3832;
      }

      .cls-2 {
        font-family: Quicksand-Bold, Quicksand;
        font-size: 26px;
        font-variation-settings: 'wght' 700;
        font-weight: 700;
      }

      .cls-3 {
        fill: #9b6f67;
      }

      .cls-4 {
        fill: #efe7dc;
      }

      .cls-5 {
        fill: #d8c6b4;
      }

      .cls-6 {
        fill: #3f3632;
      }

      .cls-7 {
        fill: #b2936f;
      }

      .cls-8 {
        fill: #534741;
      }

      .cls-9 {
        fill: #01430e;
      }

      .cls-10 {
        opacity: .12;
      }

      .cls-11 {
        fill: #eae2d8;
      }

      .cls-12 {
        fill: #bc9388;
      }

      .cls-13 {
        letter-spacing: 0em;
      }

      .cls-14 {
        fill: #352d29;
      }

      .cls-15 {
        fill: #82ec86;
      }
    </style>
  </defs>
  <ellipse class="cls-10" cx="362.31" cy="414.67" rx="125.43" ry="16.79"/>
  <path class="cls-8" d="M449.49,237.8s41.48,13.92,26.64-30.86c0,0,30.11,28.47-11.71,53.01s-14.92-22.15-14.92-22.15Z"/>
  <path class="cls-8" d="M477.25,206.16c-3.55.16-7.03-1.87-9.91-3.78s-3.6-5.45-3.25-8.77c.19-1.76.56-3.62,1.14-5.29.44-1.24,1.08-2.33,2.44-1.47,2.81,1.78,4.92,4.95,6.25,7.93.63,1.42,2.79.63,2.8-.76,0-1.94-.06-4.18,1.01-5.89.75-1.2,2.56-2.36,3.89-1.34,1.48,1.13,1.94,3.92,2.08,5.64.19,2.28-.18,4.48-1.01,6.61-.59,1.49,1.5,2.39,2.51,1.46.76-.71,1.63-1.3,2.61-1.68.27-.1.66-.3.66-.27,0,.35-.82.88-1.03,1.05-1.8,1.43-3.69,2.76-5.58,4.06-.95.65-1.91,1.3-2.88,1.92s-1.83,1.43-3,.79c-1.77-.97-3.44-2.55-4.9-3.93-1.59-1.51-3.03-3.24-3.84-5.31-.71-1.81-1.18-4.34-.03-6.07.42-.64,1-1.19,1.74-.7.83.55,1.44,1.94,1.91,2.79,1.08,1.95,1.9,4.02,2.45,6.19.07.28.14.57.2.86.13.58-.05.98.51.59.79-.55.18-.11,0-.33-.11-.14-.47-.3-.6-.43-.77-.74-1.21-1.84-1.63-2.81-1.09-2.49-1.88-5.11-2.43-7.77l-2.2,1.69c2.43,1.66,3.87,4.73,3.46,7.66l2.2-.9c-1.65-1.13-2.55-3.22-2.2-5.19l-1.45,1.1c.62.07,1.28,1.58,1.48,2.06.12.25.2.51.24.78.01.15-.03.29-.11.41.45-.13.5.02.15.46.02-.02,0,0-.02.06,1.28,1.45,3.39-.68,2.12-2.12s-3.9-1.15-4.67.7c-.82,1.98,1.07,4.25,3.17,3.78s2.7-3.03,2.03-4.85c-.75-2.03-2.11-4.02-4.39-4.28-.6-.07-1.34.51-1.45,1.1-.6,3.38.73,6.64,3.58,8.58.73.5,2.07.04,2.2-.9.6-4.36-1.18-8.56-4.84-11.05-1.16-.79-2.45.51-2.2,1.69.72,3.44,1.78,7.08,3.54,10.16.63,1.11,1.51,2.18,2.68,2.73,1.31.62,3.34.54,3.92-1.02.48-1.28-.27-3.19-.63-4.42-.48-1.68-1.13-3.31-1.9-4.88-1.24-2.51-3.27-6.55-6.74-5.51-3.11.93-4.01,4.78-3.7,7.59.35,3.23,2,6.11,4.16,8.47,1.14,1.24,2.42,2.34,3.74,3.39,1.22.97,2.5,2.2,4,2.7s2.88.03,4.19-.78c1.7-1.05,3.35-2.2,4.98-3.35s3.21-2.3,4.76-3.53c1.21-.96,2.25-2.21,1.98-3.86-.75-4.56-6.48-1.31-8.35.43l2.51,1.46c1.17-2.96,1.44-6.18.87-9.31-.47-2.56-1.57-5.76-4.2-6.79-2.32-.9-4.98.21-6.5,2.04-1.9,2.28-2.01,5.42-2.03,8.25l2.8-.76c-1.77-3.95-9.57-14.78-13.56-7.19-.77,1.47-1.11,3.15-1.44,4.76-.39,1.94-.66,3.95-.45,5.93.34,3.32,1.81,6.19,4.59,8.09,3.31,2.27,7.47,4.49,11.59,4.3,1.92-.09,1.93-3.09,0-3h0Z"/>
  <path class="cls-8" d="M463.44,188.19c-1.45,8.48,3.34,14.95,10.29,19.27,1.16-2.74,2.31-5.48,3.47-8.22-1.46-.26-2.88-.56-4.28-1.05-.63-.2-1.25-.44-1.84-.74-1.08-.8-1.17-.43-.27,1.11l-4.34,3.3c2.36-.26,6.44,3.8,8.31,5.25l1.99-7.52c-2.49.48-5.07-.24-6.79-2.15-.83-.93-1.44-2.11-1.69-3.34-.13-.55-.17-1.1-.11-1.66-1,.27-1.29.51-.86.71.13.62,1.29,1.98,1.61,2.68.49,1.11.88,2.27,1.41,3.36,1.11,2.29,2.67,4.04,4.79,5.44,2.86,1.89,6.83-.6,6.77-3.89-.04-1.85-.07-3.71-.11-5.56-.02-.88.11-1.92-.05-2.78l-.03-1.39c-3.26-1.47-4.88-1.29-4.85.54-.52,1.26-.55,3.03-.91,4.38-.46,1.72-1.03,3.39-1.66,5.05-2.05,5.42,6.64,7.77,8.68,2.39s6.08-16.5-1.89-19.3c-3.14-1.1-6.52.4-7.79,3.47-1.55,3.74-.47,9.24-.39,13.2l6.77-3.89c-1.79-1.18-2.29-4.18-3.15-6-1.13-2.41-2.8-4.54-5.22-5.75-4.67-2.33-10.4-.26-11.81,4.93-1.29,4.75.82,10.31,4.11,13.76,4.09,4.29,9.87,5.56,15.55,4.46,3.11-.6,4.6-5.48,1.99-7.52-3.86-3.01-9.37-8.48-14.67-7.88-2.08.23-3.68,1.25-4.34,3.3-2.45,7.58,7.04,10.76,12.67,11.75,4.87.86,8.02-5.4,3.47-8.22-3.07-1.91-6.86-4.98-6.16-9.1.97-5.66-7.7-8.1-8.68-2.39h0Z"/>
  <path class="cls-8" d="M478.58,207.11c5.79,0,5.8-9,0-9s-5.8,9,0,9h0Z"/>
  <path class="cls-8" d="M470.5,194.32v-2.29c0-.26.18-1.85,0-1.32l-1.16,1.99-.31.28-2.27.61c-1,.1-2.17-1.63-1.58-.49,2.11,4.03,8.38,2.06,8.39-2.27,0-4.99-5.53-8.37-9.97-5.99s-4.98,7.56-3.51,11.9c.72,2.11,2.66,3.57,4.94,3.22,2.15-.32,3.95-2.14,3.9-4.42-.03-1.34-.06-2.67-.09-4.01,0-.33.11-1.34,0-1.67-.71,1.89-1.69,2.6-2.94,2.11-.4-.04-.71-.24-.91-.62.12-.09,1.5,5.57,1.56,6.27.23,2.42,1.91,4.5,4.5,4.5,2.26,0,4.73-2.07,4.5-4.5-.48-5.17-1.51-12.86-7.54-14.33-3.36-.82-6.78,1.12-7.82,4.41-.77,2.43-.33,5.35-.27,7.85l8.84-1.2c-.04-.12-.55-2.17-.48-2.14.1.04-.56.62-.59.64-1.28.72-3.13-.64-3.13-2.01l8.39-2.27c-1.59-3.04-5.11-5.16-8.47-3.35s-3.01,5.72-3,9.11c.02,5.79,9.02,5.8,9,0h0Z"/>
  <path class="cls-8" d="M482.89,203.99c1.26,0,2.48-.34,3.6-.92s2.01-1.45,2.74-2.46c.29-.4.33-1.09.2-1.54s-.49-.97-.92-1.2c-.46-.25-1.03-.37-1.54-.2s-.88.47-1.2.92c-.04.06-.08.11-.13.17l.31-.4c-.29.37-.62.71-1,1l.4-.31c-.41.32-.86.58-1.34.78l.48-.2c-.46.19-.94.32-1.43.39l.53-.07c-.24.03-.47.05-.71.05-.52,0-1.05.22-1.41.59s-.61.92-.59,1.41c.05,1.08.88,2.01,2,2h0Z"/>
  <path class="cls-5" d="M376.43,346.38s7.08,72.45,18.35,68.59c0,0,3.09.64,4.29-6.75,0,0,.4,7.31,3.79,6.9,0,0,4.89.99,5.59-5.8s6.49-46.83,6.49-46.83l-38.52-16.1Z"/>
  <path class="cls-5" d="M252.08,347.49s7.08,72.45,18.35,68.59c0,0,3.09.64,4.29-6.75,0,0,.4,7.31,3.79,6.9,0,0,4.89.99,5.59-5.8s6.49-46.83,6.49-46.83l-38.52-16.1Z"/>
  <path class="cls-11" d="M227.1,246.46s-11.18,86.05,26.74,112.02c0,0,17.05,11.71,49.13,16.8s37.17,10.18,37.17,10.18c0,0,29.53-6.62,58.56-23.93l65.69,13.24s-3.06-45.5,13.75-90.47c0,0-.05-51.51-57.03-70.36,0,0-35.64-17.3-85.54,7.35,0,0-22.98,8.01-36.58-9.65l-71.88,34.81Z"/>
  <path class="cls-11" d="M299.61,347.49s7.08,72.45,18.35,68.59c0,0,3.09.64,4.29-6.75,0,0,.4,7.31,3.79,6.9,0,0,4.89.99,5.59-5.8s17.64-45.63,17.64-45.63l-49.67-17.3Z"/>
  <path class="cls-11" d="M392.52,348.52s10.16,44.98,41.22,41.78c0,0,.56,25.98,7.34,25.98s5.46-6.4,5.46-6.4c0,0,2.26,6.4,6.4,6.4s7.72-3.58,8.66-9.04c0,0,5.93-19.54,2.68-34.8s-71.76-23.92-71.76-23.92Z"/>
  <path class="cls-8" d="M335.83,221.76c.05,3.61-.22,7.17-.65,10.76-.28,2.17-.56,4.33-.86,6.5-.29,2.17-.32,2.38-.08.62-.14,1.18-.29,2.35-.4,3.53-.22,2.34-.18,4.66-.28,7-.01.34.11,1.24.16,1.61.17.76.37,1.51.61,2.25-.54-1.1-.59-1.16-.14-.2.47,1.1,1.03,2.16,1.62,3.2.33.57.67,1.13,1.03,1.68,0-.08,1.21,1.48,1.68,1.94.54.54,1.11,1.05,1.69,1.54.63.34,1.26.65,1.52.8.26.15.91.57,1.58.96.2.08.52.2.98.38.4.14.81.29,1.21.43,2.32.81,4.7,1.47,7.08,2.07,9.3,2.33,18.17,3.45,26.02,9.51,4.36,3.37,7.85,7.77,10.36,12.69.51,1,.96,2.03,1.42,3.06.49,1.17.89,2.1,1.18,2.8.08.18.16.35.25.53,1.2,2.23,2.41,4.41,3.69,6.59.07.12.12.22.18.31.08.08.15.15.25.24.75.74,1.53,1.53,2.24,2.31.27.3.78.71,1.14,1,.47.32.95.63,1.44.92.95.58,1.94,1.06,2.91,1.6.04.02.07.04.11.06.04,0,.07.02.11.03,2.44.62,4.8,1.53,7.28,2.08.51.11,1.35.4,2.13.59.25-.05.61-.08,1.08-.07,1.93.03,3.83.15,5.76.04.2-.01.41-.04.63-.07-.77-.05-.48-.53,1.58-.25,1.72-.45,3.43-.85,5.12-1.43.52-.42,1.68-.75,2.22-1.03,1.57-.83,3.1-1.74,4.58-2.72.65-.43,1.29-.89,1.93-1.34.04-.04.07-.06.12-.11,1.37-1.24,2.78-2.42,4.1-3.71,2.88-2.79,5.46-5.81,8.04-8.88.23-.28.47-.5.69-.68.43-.62.84-1.34,1.17-1.8,1.16-1.61,2.29-3.24,3.4-4.88,6.15-9.12,11.64-18.75,17.2-28.23-7.58-17.83-20.01-31.74-49.26-42.08,0,0-35.64-17.3-85.54,7.35,0,0-.1.03-.29.09,0,.13.02.25.03.38Z"/>
  <path class="cls-8" d="M261.94,271.02c-2.9-12.95-4.82-26.57-3.75-39.62l-31.09,15.06s-7.02,54.07,8.96,89.43c2.39-3.38,5.89-6.03,9.86-7.3.06-.02.1-.03.15-.05.04-.03.08-.05.12-.07.29-.16.56-.34.85-.52.68-.85,2.19-1.83,2.81-2.49.5-.53.99-1.07,1.46-1.63.13-.16.23-.29.33-.4,1.19-1.86,3-5.05,3.31-5.63.72-1.35,1.36-2.72,2.01-4.1.23-.59.46-1.18.68-1.78,2.12-5.8,3.51-11.74,4.63-17.8,0-.01,0-.02,0-.04.02-.25.05-.56.08-.94.13-1.44.23-2.87.27-4.32.03-1,.03-1.99,0-2.99-2.38-4.41-2.88-9.6-.69-14.82Z"/>
  <path class="cls-8" d="M344.13,300.13c2.02.28,5.32.96,7.31.12l1.1-.02-.26-2.96c-.14-.02-2.3,2.12-2.67,2.4-.71.53-2.59,1.15-3.05,1.89l-.84.27c1.39.93,1.91.9,1.57-.06.56-.47-.47-1.23.5-1.79.6-.35,2.33-.2,2.93.08,2.37,1.1,1.18,2.26-.56,2.94l-1.24.34c-1.41-.07-1.63.22-.67.88.65.82.76.82.35,0-.28-.57-.42-1.19-.43-1.84-.16-5.17,7.32-5.12,8.41-.76.83,3.34-7.84,6.19-10.45,5.46-3.85-1.08-1.98-7.62-.31-10.03,1.58-2.28,7.77-4.26,9.24-2.47.79.96,1.4,5.56.8,6.69-.9,1.7-3.93,1.83-5.58,2.07-6.98,1-4.01,11.6,2.92,10.61,4.79-.69,9.66-2.69,12.16-7.1,2.69-4.75,1.79-11.4-.11-16.3-4.1-10.6-20.3-8.98-26.94-1.75s-8.24,21.96,1.11,27.43c8.82,5.16,24.08-.42,27.56-10,3.91-10.77-8.98-21.37-19.2-18.43-9.88,2.84-14.93,17.73-6.48,24.98,3.84,3.29,10.11,1.82,14.29-.15,4.9-2.31,8.05-6.84,7.39-12.36-1.35-11.26-18.21-15.95-24.87-6.45-3.05,4.34-2.57,12.49,1.13,16.39,4.28,4.5,10.9,2.35,15.33-.6s10.2-7.87,7.82-13.95c-1-2.55-2.98-4.33-5.48-5.41-3.42-1.48-6.4-.23-9.86-.71-6.92-.96-9.92,9.63-2.92,10.61h0Z"/>
  <path class="cls-14" d="M277.59,396.61c-4.67.22-9.33-.3-13.89-1.34-1.53-.35-3.12-.72-4.61-1.21,2.98,13.38,6.83,24.08,11.34,22.53,0,0,3.09.64,4.29-6.75,0,0,.4,7.31,3.79,6.9,0,0,4.89.99,5.59-5.8.23-2.26,1.03-8.22,1.99-15.16-2.82.4-5.66.7-8.51.83Z"/>
  <path class="cls-14" d="M399.42,400.44c-4.84.11-9.83-.63-14.5-1.91,2.74,10.36,6.06,17.74,9.87,16.44,0,0,3.09.64,4.29-6.75,0,0,.4,7.31,3.79,6.9,0,0,4.89.99,5.59-5.8.18-1.72.68-5.55,1.33-10.33-3.34.86-6.79,1.37-10.37,1.46Z"/>
  <path class="cls-8" d="M326.52,399.54c-6.64-.34-12.87-.55-18.98-2.1,2.84,11.49,6.36,20.03,10.43,18.63,0,0,3.09.64,4.29-6.75,0,0,.4,7.31,3.79,6.9,0,0,4.89.99,5.59-5.8.18-1.74,1.43-5.6,3.19-10.37-2.75-.06-5.47-.37-8.31-.51Z"/>
  <path class="cls-8" d="M439.62,399.41c-1.75.15-3.5.25-5.25.32.82,7.47,2.65,16.78,6.7,16.78,6.78,0,5.46-6.4,5.46-6.4,0,0,2.26,6.4,6.4,6.4s7.72-3.58,8.66-9.04c0,0,1.18-3.9,2.2-9.58-7.99,2.47-15.81,2.47-24.17,1.52Z"/>
  <text class="cls-2" transform="translate(116.92 325.58)"><tspan x="0" y="0">Moolah</tspan><tspan x="0" y="31.2" xml:space="preserve">    Ma</tspan><tspan class="cls-13" x="66.74" y="31.2">t</tspan><tspan x="77.25" y="31.2">e</tspan></text>
  <path class="cls-4" d="M197.89,184.75c-9.79,2.08-27.84,3.84-37.46-8.28-1.46-1.84-4.01-2.39-6.01-1.16-6.73,4.12-18.47,14.48-2.89,30.73.36.37.77.68,1.23.91,3.14,1.57,16.13,6.73,35.09-3.71,7.85-4.32,12.23-8.15,14.61-11.29,2.55-3.35-.46-8.08-4.58-7.21Z"/>
  <path class="cls-12" d="M152.34,176.69c9.44,13.96,27.27,23.76,43.63,21.41-2.18,1.62-4.84,3.34-8.12,5.14-18.96,10.43-31.95,5.27-35.09,3.71-.46-.23-.88-.54-1.23-.91-14.07-14.67-5.87-24.54.81-29.35Z"/>
  <path class="cls-8" d="M289.95,186.78c9.79,2.08,27.84,3.84,37.46-8.28,1.46-1.84,4.01-2.39,6.01-1.16,6.73,4.12,18.47,14.48,2.89,30.73-.36.37-.77.68-1.23.91-3.14,1.57-16.13,6.73-35.09-3.71-7.85-4.32-12.23-8.15-14.61-11.29-2.55-3.35.46-8.08,4.58-7.21Z"/>
  <path class="cls-12" d="M335.5,178.72c-9.44,13.96-27.27,23.76-43.63,21.41,2.18,1.62,4.84,3.34,8.12,5.14,18.96,10.43,31.95,5.27,35.09,3.71.46-.23.88-.54,1.23-.91,14.07-14.67,5.87-24.54-.81-29.35Z"/>
  <path class="cls-7" d="M187.85,203.24s-2.07-35.77,8.12-43.05,6.89,16.12,14.16,16.5l-22.28,26.55Z"/>
  <path class="cls-7" d="M298.8,203.24s2.07-35.77-8.12-43.05-6.89,16.12-14.16,16.5l22.28,26.55Z"/>
  <ellipse class="cls-4" cx="244.25" cy="225.8" rx="65.29" ry="62.83"/>
  <rect class="cls-12" x="211.97" y="258.59" width="64.55" height="33.97" rx="16.35" ry="16.35"/>
  <path class="cls-3" d="M229.23,273.2s9.65,1.49,10.8,10.92c.21,1.76-8.79-10.04-10.8-10.92Z"/>
  <path class="cls-3" d="M259.24,273.2s-9.65,1.49-10.8,10.92c-.21,1.76,8.79-10.04,10.8-10.92Z"/>
  <path class="cls-8" d="M248.08,165.28c-9.66,6.77-16.64,25.29-6.38,34.24,4.29,3.75,8.47,6.98,9.26,13,.71,5.43-2.28,12.63.86,17.5,7.56,11.71,21.02,3.28,31.35,1.71,8.1-1.23,18.45-.02,25.43,5.27.69-3.67,1.08-7.45,1.08-11.31,0-32.9-26.29-59.88-59.76-62.59-.36.81-.95,1.56-1.83,2.17Z"/>
  <path class="cls-8" d="M198.33,256.49c-4.32-4.09-5.28-8.49-2.3-13.85,1.78-3.2,2.15-5.09.97-8.65-.98-2.95-2.47-5.75-4.8-7.86-3.61-3.28-8.32-4.5-13.06-4.83-.11,1.49-.18,2.99-.18,4.51,0,16.9,6.95,32.24,18.24,43.53,3.95-3.47,5.96-8.26,1.13-12.84Z"/>
  <path class="cls-8" d="M198.68,208.67c.02.16.09.14.21-.06.9-.29.58-.69-.96-1.21.1-.08-.31,1.44-.36,1.52-.21.19-.46.32-.73.39,1.17,1.45,1.65,1.53,1.45.27.29-.63.29-1.29.7-1.89.27-.39,2.16-1.45,2.19-1.57-1.27-1.27-1.76-1.44-1.49-.53.02.35.02.71,0,1.06-.09.79-.4,1.6-.85,2.26-.34.5-1.09.84-1.36,1.29-.17.14-.36.22-.57.25.61.85.81.8.6-.16.38-.98-.15-2.22.38-3.25.69-1.34,2.32-1.87,3.7-2.15.25-.06.5-.11.75-.15.88.15.93-.07.15-.65-.47.7-.67,1.67-1.15,2.41-.52.81-1.14,1.66-1.91,2.26-.64.5-1.26.49-1.14.88-1.29-4.3-8.05-2.47-6.75,1.86,1.82,6.05,8.8,5.92,12.84,2.21,3.26-2.99,7.03-9.06,4.03-13.35s-9.96-2.7-13.58-.11c-4.11,2.93-6.08,10.25-3.1,14.61,3.35,4.9,10.03,2.01,12.78-1.85,2.4-3.37,3.64-10.2-.23-13.06-4.56-3.36-10.92,2.28-12.39,6.45-.81,2.3-.99,5.37.22,7.57,1.4,2.54,4.53,2.73,7.04,1.95,5.25-1.63,8.23-9.51,3.58-13.42-2.2-1.85-5.45-1.16-7.67.3-2.73,1.79-3.68,4.65-3.15,7.77.75,4.43,7.49,2.55,6.75-1.86h0Z"/>
  <path class="cls-1" d="M207.17,249.18c.71-1.35,1.52-2.66,2.46-3.87.73-.93,1.75-2.19,2.69-2.85.53-.38.88-.55,1.46-.48-.25-.03.23.08.24.08-.22-.1.25.22,0,0,.03.03.29.36.13.12.05.08.1.16.14.24-.05-.14-.05-.13.01.04.04.14.08.28.1.42-.04-.32-.02.15-.01.18.03.38.09-.24-.02.21-.03.11-.05.23-.09.34-.16.53-.6,1.18-.95,1.62-.86,1.09-1.96,2.14-3.01,2.88-.53.37-1.08.77-1.68,1.02.14-.06-.38.13-.32.11.05-.02-.52.11-.31.07-.33.07-.12-.05,0,.08.11.08.21.18.28.3.02.14.02.12,0-.07.06-1.3.38-2.45,1.24-3.56.71-.91,1.87-1.93,2.9-2.56l.15-.09c.17-.09.2-.11.1-.05-.06,0-.11,0-.17,0-.18-.04-.31-.13-.39-.29.28.29-.14-.21.05.14-.08-.15.02-.29-.05-.04-.1.35.08-.06-.11.25-.11.19-.23.38-.35.56.02-.03-.3.4-.16.23-.14.17-.29.34-.44.5-1.03,1.1-2.22,1.84-3.64,2.55l2.2,1.69c.38-1.59,1.09-3.03,2.13-4.23.67-.77.53-1.78-.3-2.36-1.06-.73-2.24-.12-3.1.59-.74.62-1.43,1.31-2.05,2.05-1.29,1.55-2.44,3.8-1.06,5.7l2.36-1.82c-.2-.2-.11-.09-.05-.01l-.04-.16c.02.1.02.1.02,0,.02-.33.03-.61-.04-.94-.17-.91-.87-1.42-1.76-1.5-.82-.07-1.49.75-1.5,1.5-.02.99.08,2,.72,2.81.67.85,1.75,1.28,2.81.98l-1.16-2.74c-.17.12-.06.04.07.02.09,0,.09,0,0,0-.11,0-.09,0,.06,0,.05.08.1.09-.01-.02-.01-.01.15.14.15.14.08.05-.08-.23-.04-.04,0-.04,0-.41-.01-.29,0,.1.08-.29.08-.3,0,0,.09-.25.04-.13.4-.94,1.16-1.91,1.71-2.58,1.39-1.68,2.87-2.88,4.86-3.75.74-.32.91-1.41.54-2.05-.45-.77-1.31-.86-2.05-.54-2.73,1.19-4.93,3.31-6.62,5.73-.93,1.33-1.85,2.87-1.46,4.56s2.58,3,4.19,1.86c.61-.43.93-1.15.61-1.87-.3-.67-1.04-1.08-1.77-.87.04-.01.6.06.24,0,.17.03.14.22.08.03-.04-.14-.03-.04-.04-.24-.01-.23,0-.46,0-.68l-1.5,1.5h.09c-.25-.06-.5-.13-.76-.2-.09-.04-.61-.63-.52-.79-.02.04,0,.19,0,.24-.02.32,0,.59.06.91.12.6.45,1.14.88,1.57.53.52,1.39.58,1.97.12.54-.43.83-1.32.39-1.94,0,0-.21-.31-.16-.24.07.12-.07-.26-.03-.04-.06-.34-.04-.25.04-.57.09-.37.48-.89.74-1.21.4-.48.83-.94,1.28-1.37.23-.22.46-.42.7-.63.11-.1-.01,0,.15-.12l.13-.07c-.22.15-.46.15-.75,0l-.3-2.36c-1.39,1.6-2.41,3.48-2.9,5.55-.31,1.32,1.03,2.28,2.2,1.69,1.64-.82,3.25-1.87,4.47-3.27,1.3-1.48,2.71-3.98.8-5.62s-4.34.56-5.76,1.88-2.61,3.06-2.98,5.01c-.2,1.08-.35,2.34.22,3.33.67,1.17,2.17,1.27,3.34.96,1.9-.5,3.68-1.98,5.06-3.32s2.86-3.02,3.2-4.95c.35-2.04-.61-4.34-2.79-4.82-2.53-.56-4.51,1.25-6.06,3s-2.81,3.58-3.86,5.59c-.38.72-.18,1.63.54,2.05.68.4,1.68.18,2.05-.54h0Z"/>
  <path class="cls-1" d="M280.44,248.47c-.94-1.8-2.08-3.47-3.38-5.03s-2.75-3.23-4.76-3.57c-2.19-.38-4.26.91-4.59,3.17s.88,4.01,2.25,5.59c1.26,1.45,2.81,2.76,4.5,3.69,1.01.56,2.18.96,3.35.73,1.32-.26,1.9-1.47,1.9-2.71,0-2.13-.86-4.08-2.21-5.69-.59-.71-1.28-1.32-2.01-1.89-.87-.68-1.78-1.48-2.93-1.57-1.32-.1-2.44.9-2.65,2.17s.39,2.38,1.13,3.35c1.31,1.73,3.09,2.99,5.02,3.96,1.17.59,2.52-.38,2.2-1.69-.49-2.07-1.51-3.95-2.9-5.55l-.3,2.36c-.27.14-.5.15-.7.02-.07-.04-.06-.03.02.01.03.03.27.19.15.09.25.19.47.41.7.62.48.45.93.93,1.35,1.43.17.2.24.29.4.55.13.2.27.47.31.58.04.13.09.27.1.4-.02-.2-.02.11-.02.17,0,.11,0,.11,0,0l-.04.15c.12-.19-.15.21-.15.2-.43.6-.16,1.53.39,1.94.59.44,1.43.42,1.97-.12.43-.43.76-.97.88-1.57.06-.29.08-.57.06-.86,0-.06,0-.17-.01-.23,0-.09,0-.08-.02.03-.04.29-.21.53-.5.7l-.76.2h.09c-.5-.51-1-1.01-1.5-1.51,0,.23,0,.46,0,.68-.01.2,0,.11-.04.24-.06.19-.09,0,.08-.03-.37.06.19-.01.24,0-.71-.2-1.5.19-1.77.87-.29.73-.01,1.43.61,1.87,1.6,1.13,3.69-.07,4.17-1.78s-.51-3.31-1.44-4.64c-1.69-2.41-3.89-4.54-6.62-5.73-.74-.32-1.61-.22-2.05.54-.37.64-.21,1.73.54,2.05,1.99.87,3.47,2.08,4.86,3.75.55.66,1.25,1.59,1.67,2.5.05.11.14.34.17.55-.03-.21-.01.13-.02.17,0,.11,0,.11,0,0l-.05.15s.04-.1.11-.15c.07-.04.06-.04-.01,0-.09.05-.08.05.05-.01.04-.07.22.06,0,0,.11.03.36.14.14-.02l-1.16,2.74c1.06.3,2.14-.13,2.81-.98.63-.81.73-1.82.72-2.81-.01-.76-.68-1.57-1.5-1.5-.89.08-1.59.59-1.76,1.5-.05.28-.08.57-.04.86,0,.17,0,.22.02.12.02-.09.01-.05-.03.12.05-.07.16-.2-.05.01l2.36,1.82c1.38-1.9.23-4.15-1.06-5.7-.6-.72-1.26-1.39-1.98-1.99-.87-.74-2.07-1.41-3.17-.65-.83.57-.97,1.59-.3,2.36,1.03,1.19,1.75,2.64,2.13,4.23l2.2-1.69c-1.24-.62-2.36-1.31-3.29-2.2-.5-.48-.8-.83-1.13-1.36-.16-.26-.23-.35-.28-.53-.1-.35.02-.04-.05.04.05-.17.04-.18-.02-.03.09-.15.09-.15,0-.01.39-.14-.52.31-.49.19l-.05-.03c.1.05.2.11.3.17.29.18.56.39.84.6.42.32,1.07.88,1.52,1.36.87.91,1.51,1.97,1.74,3.29.04.23.03.54.05.87s-.04.07.06,0c-.19.16.42-.41.41-.3,0,.07-.7-.13-.83-.19-.24-.1-.64-.35-.93-.53-1.15-.72-2.11-1.54-3.05-2.57-.47-.51-.83-.94-1.18-1.5-.17-.27-.32-.54-.4-.75-.04-.11-.07-.22-.1-.34-.03-.11-.05-.23-.07-.35.02.16.03.15.01-.03,0-.03.03-.5-.01-.18.02-.14.06-.28.1-.42.1-.38-.12.17.08-.16.22-.37-.19.18.1-.14.19-.21-.15,0,.16-.12-.22.08.26-.07.25-.07-.25.05.25,0,.25,0,.19.01.22.01.1,0,.11.02.22.05.32.08.22.06.57.27.86.49.12.09.43.39.62.58.6.6,1.17,1.24,1.71,1.9,1,1.23,1.92,2.69,2.68,4.14.38.72,1.38.93,2.05.54.73-.43.91-1.33.54-2.05h0Z"/>
  <path class="cls-15" d="M376.26,230.11c6.07.34,12.13,1.35,18.11,2.4,2.65.47,5.3.94,7.95,1.4.44.08.91.15,1.22.19.78.08,1.55.16,2.33.23,3.8-5.17,6.05-11.55,6.05-18.45,0-17.22-13.96-31.17-31.17-31.17s-31.17,13.96-31.17,31.17c0,5.46,1.41,10.6,3.88,15.06,7.61-.51,15.24-1.25,22.82-.82Z"/>
  <path class="cls-9" d="M389.29,198.76c-3.43-1.24-7.65-1.6-11.14-.35-1.73.61-2.68,1.9-3.19,3.61-.49,1.62-.9,3.51,0,5.06,1.78,3.11,6.1,3.41,8.61,5.66,2.24,2.01,2.92,6.17-.24,7.72-3.61,1.78-7.28-1.36-9.62-3.78-1.34-1.39-3.46.73-2.12,2.12,2.43,2.51,5.27,4.78,8.87,5.09s6.69-1.62,7.73-4.98-.67-7.05-3.5-9.1c-1.42-1.03-3.07-1.65-4.63-2.44-.73-.37-1.49-.77-2.1-1.32-.75-.69-.56-1.51-.34-2.41.2-.81.37-1.85,1.16-2.28.9-.49,2.18-.59,3.18-.66,2.24-.16,4.41.18,6.52.93,1.82.66,2.6-2.24.8-2.89h0Z"/>
  <path class="cls-9" d="M383.06,193.53c-2.12,10.78-4.24,21.57-6.36,32.35-.37,1.89,2.52,2.69,2.89.8,2.12-10.78,4.24-21.57,6.36-32.35.37-1.89-2.52-2.69-2.89-.8h0Z"/>
  <path class="cls-6" d="M350.95,233.6c18.89-1.48,38.09-1.86,56.67,2.36,1.88.43,2.68-2.46.8-2.89-18.85-4.28-38.31-3.97-57.47-2.47-1.91.15-1.93,3.15,0,3h0Z"/>
</svg>